<svg width="24" height="21" viewBox="0 0 24 21" fill="none" xmlns="http://www.w3.org/2000/svg">
<path d="M20.8401 3.15162C20.3294 2.64062 19.7229 2.23527 19.0555 1.9587C18.388 1.68214 17.6726 1.53979 16.9501 1.53979C16.2276 1.53979 15.5122 1.68214 14.8448 1.9587C14.1773 2.23527 13.5709 2.64062 13.0601 3.15162L12.0001 4.21162L10.9401 3.15162C9.90843 2.11993 8.50915 1.54033 7.05012 1.54033C5.59109 1.54033 4.19181 2.11993 3.16012 3.15162C2.12843 4.18331 1.54883 5.58259 1.54883 7.04162C1.54883 8.50065 2.12843 9.89993 3.16012 10.9316L4.22012 11.9916L12.0001 19.7716L19.7801 11.9916L20.8401 10.9316C21.3511 10.4209 21.7565 9.81443 22.033 9.14698C22.3096 8.47952 22.4519 7.76411 22.4519 7.04162C22.4519 6.31913 22.3096 5.60372 22.033 4.93627C21.7565 4.26881 21.3511 3.66238 20.8401 3.15162V3.15162Z" stroke="#6E767D" stroke-width="2" stroke-linecap="round" stroke-linejoin="round"/>
</svg>
