<svg width="48" height="48" viewBox="0 0 48 48" fill="none" xmlns="http://www.w3.org/2000/svg">
<circle cx="28.8151" cy="2.57162" r="1.5" transform="rotate(50 28.8151 2.57162)" fill="#E28FBF"/>
<circle cx="23.8358" cy="6.74977" r="1" transform="rotate(50 23.8358 6.74977)" fill="#884C83"/>
<circle cx="9.5" cy="6.5" r="1.5" fill="#E28FBF"/>
<circle cx="9.5" cy="13" r="1" fill="#884C83"/>
<circle cx="44.1931" cy="12.1654" r="1.5" transform="rotate(112 44.1931 12.1654)" fill="#E9B857"/>
<circle cx="38.1664" cy="9.73043" r="1" transform="rotate(112 38.1664 9.73043)" fill="#D5C498"/>
<circle cx="45.3389" cy="29.0369" r="1.5" transform="rotate(162 45.3389 29.0369)" fill="#E9B857"/>
<circle cx="43.3303" cy="22.855" r="1" transform="rotate(162 43.3303 22.855)" fill="#D5C498"/>
<circle cx="31.8099" cy="45.8816" r="1.5" transform="rotate(-138 31.8099 45.8816)" fill="#4F9ACD"/>
<circle cx="36.1592" cy="41.0511" r="1" transform="rotate(-138 36.1592 41.0511)" fill="#4B79AE"/>
<circle cx="13.2151" cy="43.1817" r="1.5" transform="rotate(-104 13.2151 43.1817)" fill="#77AC5E"/>
<circle cx="19.522" cy="41.6092" r="1" transform="rotate(-104 19.522 41.6092)" fill="#7B8B79"/>
<circle cx="2.121" cy="23.037" r="1.5" transform="rotate(-44 2.121 23.037)" fill="#77AC5E"/>
<circle cx="6.63629" cy="27.7127" r="1" transform="rotate(-44 6.63629 27.7127)" fill="#7B8B79"/>
</svg>
